<svg width="350" height="400" viewBox="0 0 350 400" fill="none" xmlns="http://www.w3.org/2000/svg">
<path d="M217.091 0.00310056C178.82 -0.278479 136.792 18.5873 126.705 69.4623C142.132 39.6331 195.038 -18.3813 264.064 25.2907L250.912 29.4145C196.522 3.08231 166.855 72.6415 215.212 93.6236C261.592 113.788 256.647 135.043 204.433 112.153C295.314 174.737 133.43 286.642 133.43 286.642C166.459 279.829 201.763 264.297 242.407 227.873L233.705 251.399C306.587 218.063 301.939 139.403 301.939 139.403L308.763 170.377C349.802 66.7374 196.621 73.5498 227.277 38.098C279.293 65.9199 350 59.925 350 59.925L276.821 20.7855C264.657 8.24156 241.616 0.184765 217.091 0.00310056ZM164.086 119.602C99.8069 118.966 -8.00364 188.271 0.471281 350.769C0.471281 350.769 32.4624 323.701 60.0528 267.93L48.5815 319.432C250.417 195.355 230.441 120.237 164.086 119.602ZM174.074 289.73C168.635 292.092 163.097 294.181 157.46 296.179L155.581 347.317H155.779C160.229 364.394 165.668 381.924 167.745 400H182.875C176.348 381.924 171.008 365.393 166.855 346.409C166.855 346.409 172.887 298.904 174.074 289.73ZM128.881 305.171C123.541 306.716 118.398 307.987 113.454 309.168C117.706 339.506 121.167 371.933 121.167 400H135.111C129.87 366.392 129.375 338.688 128.881 305.171Z" fill="#F1F1F1"/>
</svg>
