<svg width="360" height="178" viewBox="0 0 360 178" fill="none" xmlns="http://www.w3.org/2000/svg">
<g clip-path="url(#clip0_788_672)">
<rect width="360" height="178" fill="#07316D"/>
<path d="M15.2168 53.1346C19.2026 50.8334 20.5682 45.7368 18.2671 41.751C15.9659 37.7653 10.8693 36.3996 6.8835 38.7008C2.89773 41.002 1.53211 46.0986 3.83329 50.0844C6.13448 54.0701 11.2311 55.4358 15.2168 53.1346Z" stroke="white" stroke-opacity="0.08" stroke-width="3" stroke-linecap="round" stroke-linejoin="round"/>
<path d="M18.2671 41.751L0.211548 10.4779" stroke="white" stroke-opacity="0.08" stroke-width="3" stroke-linecap="round" stroke-linejoin="round"/>
<path d="M26.3012 -11L0.211494 10.4779M31.8568 -1.37748L5.76705 20.1004" stroke="white" stroke-opacity="0.08" stroke-width="3" stroke-linecap="round"/>
<path d="M41.3067 31.6567C45.2925 29.3555 46.6581 24.2589 44.3569 20.2731C42.0557 16.2874 36.9591 14.9217 32.9733 17.2229C28.9876 19.5241 27.622 24.6207 29.9231 28.6065C32.2243 32.5922 37.3209 33.9579 41.3067 31.6567Z" stroke="white" stroke-opacity="0.08" stroke-width="3" stroke-linecap="round" stroke-linejoin="round"/>
<path d="M44.3568 20.2731L26.3013 -11" stroke="white" stroke-opacity="0.08" stroke-width="3" stroke-linecap="round" stroke-linejoin="round"/>
<path d="M88.3566 79.523C91.315 83.0487 96.5713 83.5085 100.097 80.5502C103.623 77.5918 104.082 72.3355 101.124 68.8099C98.1657 65.2843 92.9094 64.8244 89.3838 67.7828C85.8581 70.7411 85.3983 75.9974 88.3566 79.523Z" stroke="white" stroke-opacity="0.08" stroke-width="3" stroke-linecap="round" stroke-linejoin="round"/>
<path d="M100.097 80.5502L127.76 57.3384" stroke="white" stroke-opacity="0.08" stroke-width="3" stroke-linecap="round" stroke-linejoin="round"/>
<path d="M153.442 79.3022L127.76 57.3384M144.93 86.4443L119.248 64.4805" stroke="white" stroke-opacity="0.08" stroke-width="3" stroke-linecap="round"/>
<path d="M114.039 101.487C116.997 105.013 122.253 105.472 125.779 102.514C129.305 99.5557 129.764 94.2994 126.806 90.7738C123.848 87.2482 118.591 86.7883 115.066 89.7466C111.54 92.705 111.08 97.9613 114.039 101.487Z" stroke="white" stroke-opacity="0.08" stroke-width="3" stroke-linecap="round" stroke-linejoin="round"/>
<path d="M125.779 102.514L153.442 79.3022" stroke="white" stroke-opacity="0.08" stroke-width="3" stroke-linecap="round" stroke-linejoin="round"/>
<path d="M283.217 163.468C287.203 165.769 292.299 164.404 294.6 160.418C296.902 156.432 295.536 151.335 291.55 149.034C287.564 146.733 282.468 148.099 280.167 152.084C277.866 156.07 279.231 161.167 283.217 163.468Z" stroke="white" stroke-opacity="0.08" stroke-width="3" stroke-linecap="round" stroke-linejoin="round"/>
<path d="M294.6 160.418L312.656 129.145" stroke="white" stroke-opacity="0.08" stroke-width="3" stroke-linecap="round" stroke-linejoin="round"/>
<path d="M344.301 141L312.656 129.145M338.746 150.623L307.1 138.767" stroke="white" stroke-opacity="0.08" stroke-width="3" stroke-linecap="round"/>
<path d="M314.862 175.323C318.848 177.625 323.945 176.259 326.246 172.273C328.547 168.287 327.181 163.191 323.196 160.89C319.21 158.589 314.113 159.954 311.812 163.94C309.511 167.926 310.876 173.022 314.862 175.323Z" stroke="white" stroke-opacity="0.08" stroke-width="3" stroke-linecap="round" stroke-linejoin="round"/>
<path d="M326.246 172.273L344.301 141" stroke="white" stroke-opacity="0.08" stroke-width="3" stroke-linecap="round" stroke-linejoin="round"/>
<path d="M360.884 37.3202L340.725 48.9589M360.884 37.3202C362.666 36.2912 364.78 36.0063 366.762 36.5281C368.743 37.0498 370.43 38.3355 371.45 40.1023L337.852 59.5002C336.832 57.7334 336.561 55.6302 337.1 53.6534C337.639 51.6765 338.943 49.9878 340.725 48.9589M360.884 37.3202L356.557 29.8257C355.761 28.4467 353.988 27.978 352.595 28.7824L350.644 29.9088M340.725 48.9589L336.398 41.4645C335.602 40.0855 336.085 38.3145 337.476 37.5115L339.429 36.3838M350.644 29.9088L339.429 36.3838M350.644 29.9088C348.142 28.4811 346 26.5075 344.378 24.135M339.429 36.3838C339.442 33.5037 338.803 30.6624 337.559 28.0715M344.378 24.135C346.337 22.315 347.85 20.0739 348.802 17.5836M344.378 24.135C342.431 25.9431 340.099 27.2893 337.559 28.0715M337.559 28.0715C335.004 28.8577 332.306 29.0479 329.674 28.6274M317.078 19.6391C315.061 21.2266 313.107 22.8699 311.213 24.5648C313.39 27.1827 316.383 29.0015 319.724 29.7366C323.064 30.4717 326.563 30.0816 329.674 28.6274M317.078 19.6391L317.416 20.2254C320.119 24.9063 324.695 27.8362 329.674 28.6274M317.078 19.6391L315.135 16.275C319.741 12.6847 324.591 9.41843 329.651 6.50001C334.782 3.5373 340.036 0.977739 345.372 -1.18537L347.316 2.18102M347.316 2.18102L347.654 2.76726C350.357 7.44823 350.606 12.8766 348.802 17.5836M347.316 2.18102C349.687 1.23297 352.088 0.360437 354.514 -0.435225C355.692 2.75902 355.771 6.26002 354.738 9.52008C353.705 12.7802 351.616 15.6167 348.802 17.5836" stroke="white" stroke-opacity="0.08" stroke-width="3" stroke-linecap="round" stroke-linejoin="round"/>
<path d="M37.0114 167.96L19.1799 152.998M37.0114 167.96C38.5879 169.283 39.5788 171.173 39.7662 173.213C39.9536 175.254 39.3221 177.278 38.0108 178.841L8.29149 153.903C9.60286 152.34 11.4867 151.367 13.5287 151.197C15.5707 151.028 17.6035 151.675 19.1799 152.998M37.0114 167.96L42.574 161.331C43.5975 160.111 43.4316 158.285 42.1993 157.251L40.4736 155.803M19.1799 152.998L24.7425 146.369C25.766 145.149 27.5952 144.997 28.8256 146.029L30.5533 147.479M40.4736 155.803L30.5533 147.479M40.4736 155.803C40.9596 152.964 42.0815 150.276 43.756 147.94M30.5533 147.479C33.2644 146.507 35.7157 144.935 37.7249 142.879M43.756 147.94C46.1364 149.159 48.7597 149.814 51.4256 149.857M43.756 147.94C41.3909 146.729 39.3285 144.998 37.7249 142.879M37.7249 142.879C36.1122 140.747 35.0105 138.276 34.5054 135.659M38.6436 120.749C36.4622 119.397 34.2497 118.123 32.0091 116.922C30.2938 119.864 29.6084 123.298 30.06 126.689C30.5117 130.079 32.0751 133.234 34.5054 135.659M38.6436 120.749L38.2084 121.267C34.7341 125.408 33.5462 130.711 34.5054 135.659M38.6436 120.749L41.1405 117.773C46.0895 120.873 50.8177 124.314 55.2905 128.07C59.8296 131.878 64.0317 135.94 67.8895 140.215L65.3909 143.192M65.3909 143.192L64.9558 143.711C61.4815 147.852 56.4657 149.942 51.4256 149.857M65.3909 143.192C67.0928 145.097 68.7338 147.054 70.3113 149.062C67.7127 151.262 64.4498 152.533 61.033 152.677C57.6162 152.821 54.2362 151.828 51.4256 149.857" stroke="white" stroke-opacity="0.08" stroke-width="3" stroke-linecap="round" stroke-linejoin="round"/>
<path d="M214.899 169.326L193.026 177.287M214.899 169.326C216.833 168.622 218.965 168.709 220.825 169.567C222.686 170.425 224.124 171.984 224.821 173.901L188.365 187.17C187.668 185.253 187.766 183.134 188.64 181.281C189.514 179.428 191.092 177.991 193.026 177.287M214.899 169.326L211.939 161.194C211.395 159.698 209.73 158.928 208.219 159.479L206.102 160.249M193.026 177.287L190.066 169.156C189.521 167.659 190.304 165.999 191.813 165.45L193.933 164.678M206.102 160.249L193.933 164.678M206.102 160.249C203.886 158.409 202.119 156.093 200.933 153.475M193.933 164.678C194.446 161.844 194.31 158.935 193.535 156.168M200.933 153.475C203.179 152.023 205.058 150.079 206.428 147.791M200.933 153.475C198.702 154.918 196.172 155.838 193.535 156.168M193.535 156.168C190.882 156.498 188.192 156.217 185.672 155.346M174.829 144.307C172.567 145.52 170.358 146.799 168.198 148.139C169.887 151.095 172.519 153.406 175.681 154.71C178.843 156.014 182.357 156.238 185.672 155.346M174.829 144.307L175.06 144.943C176.909 150.022 180.907 153.702 185.672 155.346M174.829 144.307L173.5 140.656C178.659 137.921 184.003 135.546 189.492 133.551C195.06 131.524 200.679 129.916 206.31 128.712L207.639 132.365M207.639 132.365L207.871 133.001C209.719 138.08 209.022 143.469 206.428 147.791M207.639 132.365C210.139 131.843 212.655 131.4 215.182 131.038C215.788 134.389 215.258 137.85 213.674 140.881C212.091 143.912 209.541 146.343 206.428 147.791" stroke="white" stroke-opacity="0.08" stroke-width="3" stroke-linecap="round" stroke-linejoin="round"/>
<path d="M162.925 30.2741C167.301 32.8009 172.215 32.4841 173.9 29.5663C175.584 26.6485 173.402 22.2347 169.025 19.7078C164.648 17.1809 159.735 17.4978 158.05 20.4156C156.366 23.3334 158.548 27.7472 162.925 30.2741Z" stroke="white" stroke-opacity="0.08" stroke-width="3" stroke-linecap="round" stroke-linejoin="round"/>
<path d="M173.9 29.5662L189.151 3.15063M189.151 3.15063L203.983 14.0623L199.916 21.1065L185.084 10.1948L189.151 3.15063Z" stroke="white" stroke-opacity="0.08" stroke-width="3" stroke-linecap="round" stroke-linejoin="round"/>
<path d="M243.377 100.575C247.753 98.0484 249.936 93.6346 248.251 90.7168C246.567 87.7991 241.653 87.4822 237.276 90.009C232.9 92.5359 230.717 96.9497 232.402 99.8675C234.086 102.785 239 103.102 243.377 100.575Z" stroke="white" stroke-opacity="0.08" stroke-width="3" stroke-linecap="round" stroke-linejoin="round"/>
<path d="M248.251 90.7169L233 64.3013M233 64.3013L249.866 56.9117L253.933 63.9558L237.067 71.3454L233 64.3013Z" stroke="white" stroke-opacity="0.08" stroke-width="3" stroke-linecap="round" stroke-linejoin="round"/>
</g>
<defs>
<clipPath id="clip0_788_672">
<rect width="360" height="178" fill="white"/>
</clipPath>
</defs>
</svg>
