<svg width="360" height="800" viewBox="0 0 360 800" fill="none" xmlns="http://www.w3.org/2000/svg">
<g clip-path="url(#clip0_816_3)">
<rect width="360" height="800" fill="#07316D"/>
<path d="M8.18637 357.274C12.7076 359.801 17.7834 359.484 19.5236 356.566C21.2639 353.648 19.0094 349.235 14.4882 346.708C9.96703 344.181 4.89116 344.498 3.15095 347.416C1.41074 350.333 3.66518 354.747 8.18637 357.274Z" stroke="white" stroke-opacity="0.08" stroke-width="3" stroke-linecap="round" stroke-linejoin="round"/>
<path d="M19.5237 356.566L35.2783 330.151M35.2783 330.151L50.6007 341.062L46.3995 348.106L31.0771 337.195L35.2783 330.151Z" stroke="white" stroke-opacity="0.08" stroke-width="3" stroke-linecap="round" stroke-linejoin="round"/>
<path d="M195.121 475.32L174.296 486.959M195.121 475.32C196.962 474.291 199.146 474.006 201.193 474.528C203.24 475.05 204.982 476.336 206.035 478.102L171.328 497.5C170.274 495.733 169.995 493.63 170.552 491.653C171.108 489.676 172.455 487.988 174.296 486.959M195.121 475.32L190.651 467.826C189.828 466.447 187.997 465.978 186.558 466.782L184.543 467.909M174.296 486.959L169.826 479.464C169.004 478.085 169.503 476.315 170.94 475.511L172.957 474.384M184.543 467.909L172.957 474.384M184.543 467.909C181.958 466.481 179.746 464.508 178.069 462.135M172.957 474.384C172.971 471.504 172.311 468.662 171.026 466.072M178.069 462.135C180.094 460.315 181.656 458.074 182.64 455.584M178.069 462.135C176.058 463.943 173.649 465.289 171.026 466.072M171.026 466.072C168.386 466.858 165.599 467.048 162.88 466.627M149.868 457.639C147.785 459.227 145.767 460.87 143.81 462.565C146.059 465.183 149.151 467.001 152.601 467.737C156.052 468.472 159.667 468.082 162.88 466.627M149.868 457.639L150.218 458.225C153.009 462.906 157.737 465.836 162.88 466.627M149.868 457.639L147.862 454.275C152.619 450.685 157.63 447.418 162.856 444.5C168.157 441.537 173.584 438.978 179.097 436.815L181.105 440.181M181.105 440.181L181.454 440.767C184.246 445.448 184.503 450.877 182.64 455.584M181.105 440.181C183.554 439.233 186.034 438.36 188.541 437.565C189.758 440.759 189.839 444.26 188.772 447.52C187.705 450.78 185.547 453.617 182.64 455.584" stroke="white" stroke-opacity="0.08" stroke-width="3" stroke-linecap="round" stroke-linejoin="round"/>
<path d="M327.691 389.135C331.808 386.833 333.219 381.737 330.842 377.751C328.465 373.765 323.2 372.4 319.083 374.701C314.965 377.002 313.555 382.099 315.932 386.084C318.309 390.07 323.574 391.436 327.691 389.135Z" stroke="white" stroke-opacity="0.08" stroke-width="3" stroke-linecap="round" stroke-linejoin="round"/>
<path d="M330.842 377.751L312.19 346.478" stroke="white" stroke-opacity="0.08" stroke-width="3" stroke-linecap="round" stroke-linejoin="round"/>
<path d="M339.141 325L312.19 346.478M344.88 334.623L317.929 356.1" stroke="white" stroke-opacity="0.08" stroke-width="3" stroke-linecap="round"/>
<path d="M354.642 367.657C358.76 365.355 360.171 360.259 357.793 356.273C355.416 352.287 350.151 350.922 346.034 353.223C341.917 355.524 340.506 360.621 342.883 364.606C345.26 368.592 350.525 369.958 354.642 367.657Z" stroke="white" stroke-opacity="0.08" stroke-width="3" stroke-linecap="round" stroke-linejoin="round"/>
<path d="M357.793 356.273L339.141 325" stroke="white" stroke-opacity="0.08" stroke-width="3" stroke-linecap="round" stroke-linejoin="round"/>
<path d="M59.1061 105.135C63.2235 102.833 64.6342 97.7368 62.2571 93.7511C59.8799 89.7653 54.615 88.3997 50.4977 90.7009C46.3803 93.002 44.9696 98.0986 47.3467 102.084C49.7239 106.07 54.9888 107.436 59.1061 105.135Z" stroke="white" stroke-opacity="0.08" stroke-width="3" stroke-linecap="round" stroke-linejoin="round"/>
<path d="M62.2571 93.7511L43.6053 62.4779" stroke="white" stroke-opacity="0.08" stroke-width="3" stroke-linecap="round" stroke-linejoin="round"/>
<path d="M70.5565 41L43.6053 62.4779M76.2955 50.6225L49.3443 72.1004" stroke="white" stroke-opacity="0.08" stroke-width="3" stroke-linecap="round"/>
<path d="M86.0574 83.6567C90.1748 81.3555 91.5855 76.2589 89.2084 72.2731C86.8312 68.2874 81.5663 66.9217 77.4489 69.2229C73.3316 71.5241 71.9209 76.6207 74.298 80.6065C76.6752 84.5923 81.9401 85.9579 86.0574 83.6567Z" stroke="white" stroke-opacity="0.08" stroke-width="3" stroke-linecap="round" stroke-linejoin="round"/>
<path d="M89.2083 72.2731L70.5565 41" stroke="white" stroke-opacity="0.08" stroke-width="3" stroke-linecap="round" stroke-linejoin="round"/>
<path d="M350.074 22.3202L329.249 33.9589M350.074 22.3202C351.915 21.2912 354.099 21.0063 356.146 21.5281C358.193 22.0498 359.934 23.3355 360.988 25.1023L326.281 44.5002C325.227 42.7334 324.948 40.6302 325.504 38.6534C326.061 36.6765 327.408 34.9878 329.249 33.9589M350.074 22.3202L345.604 14.8257C344.781 13.4467 342.95 12.978 341.511 13.7824L339.495 14.9088M329.249 33.9589L324.779 26.4645C323.957 25.0855 324.456 23.3145 325.892 22.5115L327.91 21.3838M339.495 14.9088L327.91 21.3838M339.495 14.9088C336.911 13.4811 334.699 11.5075 333.022 9.13503M327.91 21.3838C327.924 18.5037 327.264 15.6624 325.979 13.0715M333.022 9.13503C335.046 7.315 336.609 5.07391 337.593 2.58355M333.022 9.13503C331.011 10.9431 328.602 12.2893 325.979 13.0715M325.979 13.0715C323.339 13.8577 320.552 14.0479 317.833 13.6274M304.821 4.63913C302.738 6.22658 300.719 7.86995 298.762 9.56478C301.012 12.1827 304.104 14.0015 307.554 14.7366C311.005 15.4717 314.62 15.0816 317.833 13.6274M304.821 4.63913L305.17 5.22536C307.962 9.90634 312.69 12.8362 317.833 13.6274M304.821 4.63913L302.814 1.27495C307.572 -2.31525 312.583 -5.58157 317.809 -8.49999C323.11 -11.4627 328.537 -14.0223 334.05 -16.1854L336.058 -12.819M336.058 -12.819L336.407 -12.2327C339.199 -7.55177 339.456 -2.12342 337.593 2.58355M336.058 -12.819C338.507 -13.767 340.987 -14.6396 343.493 -15.4352C344.711 -12.241 344.792 -8.73998 343.725 -5.47992C342.658 -2.21985 340.5 0.616681 337.593 2.58355" stroke="white" stroke-opacity="0.08" stroke-width="3" stroke-linecap="round" stroke-linejoin="round"/>
<path d="M210.658 160.274C215.179 162.801 220.255 162.484 221.995 159.566C223.736 156.648 221.481 152.235 216.96 149.708C212.439 147.181 207.363 147.498 205.623 150.416C203.883 153.333 206.137 157.747 210.658 160.274Z" stroke="white" stroke-opacity="0.08" stroke-width="3" stroke-linecap="round" stroke-linejoin="round"/>
<path d="M221.995 159.566L237.75 133.151M237.75 133.151L253.072 144.062L248.871 151.106L233.549 140.195L237.75 133.151Z" stroke="white" stroke-opacity="0.08" stroke-width="3" stroke-linecap="round" stroke-linejoin="round"/>
<path d="M44.6439 752.135C48.7612 749.833 50.172 744.737 47.7948 740.751C45.4176 736.765 40.1528 735.4 36.0354 737.701C31.918 740.002 30.5073 745.099 32.8844 749.084C35.2616 753.07 40.5265 754.436 44.6439 752.135Z" stroke="white" stroke-opacity="0.08" stroke-width="3" stroke-linecap="round" stroke-linejoin="round"/>
<path d="M47.7948 740.751L29.1431 709.478" stroke="white" stroke-opacity="0.08" stroke-width="3" stroke-linecap="round" stroke-linejoin="round"/>
<path d="M56.0943 688L29.1431 709.478M61.8333 697.623L34.8821 719.1" stroke="white" stroke-opacity="0.08" stroke-width="3" stroke-linecap="round"/>
<path d="M71.5952 730.657C75.7125 728.355 77.1233 723.259 74.7461 719.273C72.3689 715.287 67.104 713.922 62.9867 716.223C58.8693 718.524 57.4586 723.621 59.8357 727.606C62.2129 731.592 67.4778 732.958 71.5952 730.657Z" stroke="white" stroke-opacity="0.08" stroke-width="3" stroke-linecap="round" stroke-linejoin="round"/>
<path d="M74.746 719.273L56.0942 688" stroke="white" stroke-opacity="0.08" stroke-width="3" stroke-linecap="round" stroke-linejoin="round"/>
<path d="M335.611 669.32L314.787 680.959M335.611 669.32C337.452 668.291 339.637 668.006 341.683 668.528C343.73 669.05 345.472 670.336 346.526 672.102L311.818 691.5C310.765 689.733 310.485 687.63 311.042 685.653C311.599 683.676 312.946 681.988 314.787 680.959M335.611 669.32L331.142 661.826C330.319 660.447 328.488 659.978 327.049 660.782L325.033 661.909M314.787 680.959L310.317 673.464C309.495 672.085 309.993 670.315 311.43 669.511L313.448 668.384M325.033 661.909L313.448 668.384M325.033 661.909C322.449 660.481 320.236 658.508 318.56 656.135M313.448 668.384C313.462 665.504 312.802 662.662 311.517 660.072M318.56 656.135C320.584 654.315 322.147 652.074 323.131 649.584M318.56 656.135C316.549 657.943 314.14 659.289 311.517 660.072M311.517 660.072C308.877 660.858 306.089 661.048 303.37 660.627M290.359 651.639C288.276 653.227 286.257 654.87 284.3 656.565C286.549 659.183 289.641 661.001 293.092 661.737C296.543 662.472 300.157 662.082 303.37 660.627M290.359 651.639L290.708 652.225C293.5 656.906 298.228 659.836 303.37 660.627M290.359 651.639L288.352 648.275C293.11 644.685 298.12 641.418 303.347 638.5C308.648 635.537 314.075 632.978 319.588 630.815L321.595 634.181M321.595 634.181L321.945 634.767C324.737 639.448 324.994 644.877 323.131 649.584M321.595 634.181C324.045 633.233 326.525 632.36 329.031 631.565C330.248 634.759 330.33 638.26 329.263 641.52C328.195 644.78 326.037 647.617 323.131 649.584" stroke="white" stroke-opacity="0.08" stroke-width="3" stroke-linecap="round" stroke-linejoin="round"/>
<path d="M196.196 807.274C200.717 809.801 205.793 809.484 207.533 806.566C209.273 803.648 207.019 799.235 202.498 796.708C197.977 794.181 192.901 794.498 191.16 797.416C189.42 800.333 191.675 804.747 196.196 807.274Z" stroke="white" stroke-opacity="0.08" stroke-width="3" stroke-linecap="round" stroke-linejoin="round"/>
<path d="M207.533 806.566L223.288 780.151M223.288 780.151L238.61 791.062L234.409 798.106L219.086 787.195L223.288 780.151Z" stroke="white" stroke-opacity="0.08" stroke-width="3" stroke-linecap="round" stroke-linejoin="round"/>
</g>
<defs>
<clipPath id="clip0_816_3">
<rect width="360" height="800" fill="white"/>
</clipPath>
</defs>
</svg>
